<svg width="422" height="282" viewBox="0 0 422 282" fill="none" xmlns="http://www.w3.org/2000/svg">
<path d="M83.542 65.265C76.342 68.465 69.2087 78.265 66.542 82.765C54.5421 81.165 49.2087 83.4317 48.042 84.7651C46.842 87.9651 54.8753 98.0985 59.0419 102.765C47.8419 103.565 44.9337 121 44.9337 133.5C32.4338 146.5 50.4337 149.765 55.9338 141.765C54.3338 110.165 66.8754 109.765 71.042 112.265H124.042C131.542 123.265 116.542 144.765 116.542 155.265C116.542 165.765 129.542 211.265 136.542 205.265C151.542 197.765 137.542 175.765 133.542 165.765C129.542 155.765 154.042 137.265 154.542 126.265C154.942 117.465 165.375 113.265 170.542 112.265H238.042C239.642 122.265 261.375 136.098 272.042 141.765C266.542 147.265 265.542 167.265 270.042 173.765C274.542 180.265 292.042 173.765 287.042 161.265C283.042 151.265 292.709 137.432 298.042 131.765C302.042 149.265 331.542 167.265 324.542 185.765C317.542 204.265 314.542 209.265 328.542 209.265C342.542 209.265 341.042 179.265 345.042 167.265C348.242 157.665 343.709 132.265 341.042 120.765C357.542 131.265 363.542 163.765 364.042 179.265C364.542 194.765 344.542 238.307 328.542 228.765C315.742 221.132 313.875 225.585 314.542 228.765C320.042 241.265 338.642 255.865 369.042 214.265C399.442 172.665 361.709 107.932 339.042 80.7651C336.375 76.7651 326.742 66.565 309.542 57.765C223.542 20.965 145.042 49.765 116.542 68.765C114.542 66.9317 109.042 62.865 103.042 61.265C97.042 59.665 95.2087 47.5984 95.042 41.7651C88.242 45.3651 84.542 58.9317 83.542 65.265Z" fill="#FF8A30"/>
<path d="M119.934 81.5C109.134 92.7 91.7669 86.1667 84.4336 81.5C85.4336 86.5 72.9336 104 58.9336 103C44.9336 102 43.9336 124 40.9336 135C35.9336 149.5 52.4336 154 56.9336 141C57.7336 111 67.9336 113 71.9336 113L123.434 112C128.934 116 120.934 138 117.934 147C111.434 154 122.434 217 134.434 209.5C153.934 193 139.934 182.5 134.434 166.5C128.934 150.5 153.434 146 154.434 129.5C155.234 116.3 166.434 112.333 171.934 112H237.434C240.234 124 261.934 136.667 272.434 141.5C267.934 145.5 259.934 176.5 274.434 177C288.934 177.5 290.934 164 286.934 155.5C283.734 148.7 293.267 137.333 298.434 132.5C294.934 142 327.434 175.5 325.934 182.5C321.934 191 312.434 206 323.934 209.5C339.534 216.7 343.767 187.167 343.934 171.5C349.434 157 341.934 123 340.434 121.5C330.034 107.5 305.434 109.333 294.434 112C250.434 119.2 238.767 97.3333 238.434 85.5C243.634 60.7 198.934 63.1667 175.934 67.5C162.334 72.7 157.267 97.6667 156.434 109.5C147.634 110.7 141.767 87.3333 139.934 75.5C137.934 79.5 137.767 86.8333 137.934 90C130.334 84 132.434 68.1667 134.434 61C126.834 61 120.267 67.3333 117.934 70.5C120.767 73 125.134 78.7 119.934 81.5Z" fill="white"/>
<path d="M78.9337 92C75.3337 84 80.4337 71 83.4337 65.5C70.9337 71.5 67.4337 82.5 66.9337 84.5C66.5337 86.1 74.767 90.1667 78.9337 92Z" fill="black"/>
<path d="M199.434 52C194.634 49.2 197.434 44.8334 199.434 43C279.833 32.2 327.934 64.6667 341.434 83C340.124 81.5267 330.968 77.7379 308.658 68.5066L307.434 68C278.434 56 256.434 96 255.934 68C255.434 40 205.434 55.5 199.434 52Z" fill="black"/>
<path d="M294.434 129C278.834 107.8 295.434 87.0471 309.934 83.0003C331.434 77 334.1 86.0003 332.434 90.5003C344.434 88.0003 369.434 118 352.934 114.5C339.734 111.7 339.767 123 341.434 129C331.434 141.5 326.934 129 315.934 124.5C304.934 120 307.934 133 294.434 129Z" fill="black"/>
<path d="M376.934 154C368.934 121.2 358.434 108.167 354.434 106C344.934 110.167 328.934 119.1 340.934 121.5C352.934 123.9 370.1 144.333 376.934 154Z" fill="black"/>
<path d="M381.934 182.5C382.734 171.3 370.1 174.5 364.434 177.5C364.434 180.5 358.434 202 342.434 222C326.434 242 321.934 213 314.934 217C305.295 222.508 314.434 242 329.934 242C365.934 241 380.934 196.5 381.934 182.5Z" fill="black"/>
</svg>
