<svg width="51" height="51" viewBox="0 0 51 51" fill="none" xmlns="http://www.w3.org/2000/svg">
<path d="M35.999 0C44.2833 0 50.999 6.71573 50.999 15V36C50.999 44.2842 44.2833 51 35.999 51H15C6.71577 51 6.28925e-05 44.2842 0 36V15C1.04031e-06 6.71573 6.71573 0 15 0H35.999ZM18.5293 34.9404C15.4755 34.9406 13 37.4169 13 40.4707V40.7344C13.0001 43.6424 15.3576 45.9999 18.2656 46C21.1738 46 23.5321 43.6425 23.5322 40.7344V34.9404H18.5293ZM18.5293 20.9551C15.4755 20.9552 13 23.4316 13 26.4854C13.0002 29.539 15.4756 32.0145 18.5293 32.0146H23.5322V20.9551H18.5293ZM31.5557 20.9551C28.6476 20.9553 26.29 23.3135 26.29 26.2217V26.749C26.2902 29.657 28.6477 32.0145 31.5557 32.0146C34.4638 32.0146 36.8221 29.6571 36.8223 26.749V26.2217C36.8223 23.3134 34.4639 20.9551 31.5557 20.9551ZM18.5293 7C15.4756 7.00016 13.0001 9.47562 13 12.5293C13 15.5831 15.4755 18.0594 18.5293 18.0596H23.5322V7H18.5293ZM26.29 18.0596H31.292C34.3459 18.0596 36.8223 15.5832 36.8223 12.5293C36.8221 9.47553 34.3458 7 31.292 7H26.29V18.0596Z" fill="#7E0048"/>
</svg>
