<svg width="80" height="50" viewBox="0 0 80 50" fill="none" xmlns="http://www.w3.org/2000/svg">
<path d="M24.7055 31.7008C24.9549 31.9708 25.2124 32.272 25.4746 32.6026C26.3999 33.7695 27.34 35.2452 28.1464 36.8578C29.2438 39.0527 30.0533 41.4191 30.2905 43.5622C30.3534 50.0932 21.0372 50.4255 16.3109 49.7617C21.8998 50.0521 24.1353 46.0077 24.7154 43.3333H16.3109V33.3814H21.8968V41.7195H24.7055V31.7008ZM70.2241 0.833339C70.6524 2.6705 71.1267 5.3442 71.3403 8.04383C71.3435 8.08476 71.3469 8.12569 71.35 8.16663C71.3559 8.24376 71.3613 8.32092 71.3667 8.39805C71.3692 8.43263 71.3716 8.46721 71.3739 8.50177C71.379 8.57572 71.3838 8.64966 71.3884 8.72357C71.3915 8.77533 71.3946 8.82707 71.3976 8.87878C71.401 8.93786 71.4045 8.99689 71.4076 9.05591C71.4195 9.27882 71.4294 9.50121 71.4369 9.72262C71.4402 9.81777 71.4431 9.91271 71.4455 10.0075C71.4456 10.0152 71.446 10.0229 71.4462 10.0307C71.4537 10.3307 71.4568 10.6286 71.4552 10.9231C71.4552 10.9373 71.4549 10.9515 71.4548 10.9657C71.4525 11.3036 71.4444 11.6371 71.4288 11.9643H71.4563V43.3332H66.0584V17.4336C65.0862 17.4336 64.3831 17.8253 63.9487 18.6086C63.5144 19.3921 63.2972 20.3413 63.2972 21.4562V43.3332H57.8679V21.4562C57.8679 20.3413 57.6508 19.3921 57.2165 18.6086C56.7822 17.8253 56.0892 17.4336 55.1378 17.4336V43.3332H49.7088V11.9643H49.7356C49.5567 8.18849 50.3005 3.57766 50.9405 0.833339C50.5749 8.96283 53.8508 10.9481 55.1457 11.9643C55.1433 11.9838 55.1407 12.0036 55.1378 12.0238V15.9419C56.3375 15.9419 57.382 16.0925 58.2714 16.3939C59.1606 16.6953 59.9363 17.0869 60.5981 17.5691C61.2392 17.0869 62.0045 16.6953 62.8938 16.3939C63.8038 16.0925 64.8587 15.9419 66.0584 15.9419V12.2371C66.0424 12.1396 66.029 12.0484 66.0187 11.9643C67.3137 10.9481 70.5897 8.96283 70.2241 0.833339ZM13.9806 43.333H8.39471V33.3511C8.03296 34.0043 7.60737 34.5148 7.11794 34.8822C6.64983 35.2496 6.13913 35.4333 5.5859 35.4333V43.333H0V16.6942H5.5859C6.37322 16.6942 7.0328 16.1837 7.56478 15.1631C8.11809 14.1016 13.9806 2.34392 13.9806 0.833339V43.333ZM46.602 43.333H41.016V33.3511C40.6543 34.0043 40.2287 34.5148 39.7392 34.8822C39.2712 35.2496 38.7604 35.4333 38.2073 35.4333V43.333H32.6213V16.6942H38.2073C38.9946 16.6942 39.6542 16.1837 40.1862 15.1631C40.7398 14.1012 46.602 2.34391 46.602 0.833339V43.333ZM76.1165 43.333H75.3397L73.0098 18.3331H78.4466L76.1165 43.333ZM16.312 16.5993C16.7063 17.6044 17.2202 18.5782 17.7962 19.4788C18.7142 20.9139 19.8088 22.1935 20.8784 23.148C21.3129 23.5359 21.7597 23.8847 22.202 24.1694C22.2853 24.26 22.3856 24.3467 22.5032 24.4286C22.9287 24.7103 23.4501 24.9792 24.0672 25.2355C24.6844 25.4659 25.3547 25.7093 26.0782 25.9655C26.823 26.2217 27.504 26.5291 28.1211 26.8877C28.7381 27.2208 29.2489 27.6434 29.6532 28.1556C30.0787 28.6679 30.2915 29.2828 30.2915 30V38.1351C30.0154 37.4519 29.7119 36.7839 29.3908 36.1416C28.5409 34.4419 27.5453 32.8757 26.5502 31.6207C25.9162 30.8214 25.2629 30.1237 24.6296 29.5988C24.5334 29.3593 24.346 29.1472 24.0672 28.9626C23.6629 28.6553 23.1523 28.3735 22.5351 28.1173C21.9182 27.8356 21.237 27.5665 20.4923 27.3103C19.7689 27.0543 19.0986 26.7597 18.4814 26.4267C17.8644 26.068 17.3429 25.6582 16.9174 25.1971C16.5131 24.7105 16.3109 24.1212 16.3109 23.4295V16.6668C16.3109 16.6442 16.3119 16.6218 16.312 16.5993ZM8.39471 17.1228C8.03296 17.8168 7.60737 18.3477 7.11794 18.7151C6.64981 19.0824 6.13915 19.2662 5.5859 19.2662V32.8613C6.37322 32.8613 7.0328 32.3508 7.56478 31.3302C8.11803 30.2688 8.39471 28.9828 8.39471 27.4721V17.1228ZM41.016 17.1228C40.6543 17.8168 40.2287 18.3477 39.7392 18.7151C39.2711 19.0824 38.7604 19.2662 38.2073 19.2662V32.8613C38.9946 32.8613 39.6542 32.3508 40.1862 31.3302C40.7395 30.2688 41.016 28.9828 41.016 27.4721V17.1228ZM16.9238 12.9839C19.0658 7.25048 26.3085 7.03644 30.2915 7.8445C24.9218 7.44144 22.6476 12.8182 21.9629 16.6668H30.2915V23.4295H24.7055V18.2806H21.8968V22.0845C21.8587 22.0514 21.82 22.0177 21.7815 21.9833C20.8166 21.1221 19.8088 19.9474 18.9607 18.6213C18.1113 17.2933 17.4411 15.843 17.1219 14.4337C17.0098 13.9382 16.9423 13.4534 16.9238 12.9839ZM78.4466 16.6666H73.0098L74.563 9.99991H76.8932L78.4466 16.6666ZM80 0C79.1686 0.777846 77.7552 2.95585 78.7529 5.44496C80 8.55631 76.2587 10.112 74.1802 8.55637C72.1017 7.00068 72.1017 1.94462 80 0Z" fill="white"/>
</svg>
