<svg width="51" height="51" viewBox="0 0 51 51" fill="none" xmlns="http://www.w3.org/2000/svg">
<path d="M35.999 0C44.2833 0 50.999 6.71573 50.999 15V36C50.999 44.2842 44.2833 51 35.999 51H15C6.71577 51 6.28925e-05 44.2842 0 36V15C1.04031e-06 6.71573 6.71573 0 15 0H35.999ZM36.7959 19.4297C35.4631 19.4297 34.286 19.6394 33.2646 20.0596C32.2505 20.4725 31.457 21.0597 30.8848 21.8203C30.3199 22.5736 30.0406 23.4647 30.0479 24.4932C30.0406 25.7101 30.4216 26.7168 31.1895 27.5137C31.9573 28.3032 33.1414 28.865 34.7422 29.1982L37.5898 29.7959C38.3576 29.9625 38.923 30.2012 39.2852 30.5127C39.6545 30.8241 39.8388 31.2193 39.8389 31.6973C39.8389 32.2623 39.5528 32.7371 38.9805 33.1211C38.4155 33.505 37.6658 33.6972 36.7314 33.6973C35.826 33.6973 35.0904 33.505 34.5254 33.1211C33.9604 32.7372 33.5909 32.1684 33.417 31.415L29.5811 31.7842C29.8201 33.3199 30.5627 34.5188 31.8086 35.3809C33.0546 36.2357 34.6993 36.6631 36.7422 36.6631C38.133 36.6631 39.3644 36.4384 40.4365 35.9893C41.5084 35.5402 42.3451 34.9177 42.9463 34.1211C43.5548 33.317 43.8629 32.3893 43.8701 31.3389C43.8629 30.1436 43.4714 29.1764 42.6963 28.4375C41.9284 27.6987 40.7548 27.1588 39.1758 26.8184L36.3291 26.21C35.4816 26.0144 34.8734 25.7642 34.5039 25.46C34.1417 25.1557 33.9635 24.7608 33.9707 24.2754C33.9636 23.7105 34.2357 23.2504 34.7861 22.8955C35.3439 22.5406 36.0321 22.3633 36.8506 22.3633C37.459 22.3633 37.9734 22.4607 38.3936 22.6562C38.8137 22.8518 39.1473 23.1091 39.3936 23.4277C39.647 23.7464 39.8243 24.0871 39.9258 24.4492L43.5117 24.0586C43.2437 22.6387 42.5442 21.5118 41.4141 20.6787C40.2912 19.8458 38.7516 19.4297 36.7959 19.4297ZM10.8008 14.083V36.3379H14.833V28.8174H19.0918C20.8087 28.8174 22.2542 28.5023 23.4277 27.8721C24.6012 27.2346 25.4886 26.3621 26.0898 25.2539C26.6911 24.1455 26.9922 22.8773 26.9922 21.4502C26.9922 20.0376 26.6911 18.7773 26.0898 17.6689C25.4958 16.5534 24.6155 15.6765 23.4492 15.0391C22.2902 14.4017 20.8559 14.083 19.1465 14.083H10.8008ZM18.5273 17.4512C19.5342 17.4512 20.3567 17.6215 20.9941 17.9619C21.6388 18.2951 22.1127 18.763 22.417 19.3643C22.7285 19.9655 22.8847 20.6607 22.8848 21.4502C22.8848 22.2398 22.7285 22.9393 22.417 23.5479C22.1127 24.1562 21.6423 24.6348 21.0049 24.9824C20.3674 25.3301 19.5485 25.5039 18.5488 25.5039H14.833V17.4512H18.5273Z" fill="#7E0048"/>
</svg>
