<svg width="610" height="369" viewBox="0 0 610 369" fill="none" xmlns="http://www.w3.org/2000/svg">
<path d="M116.371 1.18072C120.001 -4.318 142.5 25.0139 147.5 34.6807C159 33.5141 188.571 46.7809 197.371 73.1807C206.171 99.5807 218.371 108.347 223.371 112.681C401.771 89.8809 471.704 185.681 484.371 233.181C510.704 252.347 541.6 280.681 578 246.681C623.5 204.181 573.5 173.681 544 186.181C514.5 198.681 505.704 218.514 499.371 212.181C474.371 145.181 625.5 91.181 608 219.181C594 321.581 523.333 293.181 466 268.181C433.5 302.681 425.371 314.181 422.871 345.181C420.871 369.981 335.704 370.181 293.371 367.181C285.771 343.181 331.871 339.847 355.871 341.181C316.271 331.181 304.038 305.014 302.871 293.181C288.471 292.781 269.538 283.681 261.871 279.181C254.371 356.181 240.371 372.681 210.371 367.181C186.371 362.781 202.704 350.681 213.871 345.181C221.038 339.014 229.671 317.18 206.871 279.181C120.371 200.181 121 143.681 120.5 137.181C119.999 130.681 90.5288 142.494 77 121.681C64.0005 101.681 82.3711 108.181 81.3711 87.1807C80.3713 66.1808 102.871 39.6807 113.371 40.1807C121.771 40.5805 118.871 14.3473 116.371 1.18072ZM119.868 156.63C120.694 164.635 124.169 175.204 128.826 185.411C133.481 195.615 139.292 205.405 144.753 211.858L145.519 212.763L144.336 212.681C136.003 212.097 126.445 211.62 112.363 208.079C98.3001 204.543 79.7381 197.954 53.3564 185.167C33.8237 182.702 20.8061 186.751 12.6406 189.404C10.5988 190.068 8.83419 190.653 7.35156 191.023C5.87928 191.39 4.60671 191.566 3.56738 191.356C2.47573 191.134 1.6809 190.493 1.18359 189.365C0.704442 188.278 0.500053 186.74 0.5 184.682C0.499967 181.143 2.16323 177.65 5.18652 174.455C8.20973 171.26 12.6159 168.336 18.1729 165.911C29.2887 161.061 45.0873 158.18 63.8975 159.183C93.8648 160.781 113.307 157.848 119.237 156.2L119.808 156.041L119.868 156.63Z" fill="#FF8A30"/>
<path d="M116.371 1.18072L115.954 0.905264L115.842 1.07462L115.88 1.27399L116.371 1.18072ZM147.5 34.6807L147.056 34.9104L147.212 35.2125L147.55 35.1782L147.5 34.6807ZM197.371 73.1807L197.845 73.0226V73.0226L197.371 73.1807ZM223.371 112.681L223.044 113.059L223.213 113.205L223.434 113.177L223.371 112.681ZM484.371 233.181L483.888 233.31L483.934 233.481L484.077 233.585L484.371 233.181ZM578 246.681L578.341 247.046L578 246.681ZM544 186.181L543.805 185.72L544 186.181ZM499.371 212.181L498.903 212.356L498.941 212.457L499.018 212.534L499.371 212.181ZM608 219.181L608.495 219.248L608 219.181ZM466 268.181L466.2 267.722L465.877 267.582L465.636 267.838L466 268.181ZM422.871 345.181L422.373 345.141L422.871 345.181ZM293.371 367.181L292.894 367.332L292.997 367.655L293.336 367.679L293.371 367.181ZM355.871 341.181L355.843 341.68L355.993 340.696L355.871 341.181ZM302.871 293.181L303.369 293.132L303.325 292.693L302.885 292.681L302.871 293.181ZM261.871 279.181L262.124 278.75L261.449 278.353L261.373 279.132L261.871 279.181ZM210.371 367.181L210.281 367.673L210.371 367.181ZM213.871 345.181L214.092 345.629L214.149 345.601L214.197 345.56L213.871 345.181ZM206.871 279.181L207.3 278.923L207.262 278.861L207.208 278.812L206.871 279.181ZM120.5 137.181L120.999 137.142L120.999 137.142L120.5 137.181ZM77 121.681L76.5808 121.953L77 121.681ZM81.3711 87.1807L80.8717 87.2045L81.3711 87.1807ZM113.371 40.1807L113.347 40.6802H113.347L113.371 40.1807ZM119.868 156.63L119.371 156.681L119.371 156.681L119.868 156.63ZM128.826 185.411L128.371 185.619L128.826 185.411ZM144.753 211.858L144.371 212.181L144.371 212.182L144.753 211.858ZM145.519 212.763L145.484 213.262L146.665 213.344L145.9 212.44L145.519 212.763ZM144.336 212.681L144.301 213.18L144.301 213.18L144.336 212.681ZM112.363 208.079L112.241 208.564L112.363 208.079ZM53.3564 185.167L53.5745 184.717L53.5006 184.681L53.419 184.671L53.3564 185.167ZM12.6406 189.404L12.4861 188.929H12.4861L12.6406 189.404ZM7.35156 191.023L7.47256 191.508H7.47257L7.35156 191.023ZM3.56738 191.356L3.46794 191.846L3.46796 191.846L3.56738 191.356ZM1.18359 189.365L0.726065 189.567L0.726081 189.567L1.18359 189.365ZM0.5 184.682H4.95032e-10V184.682L0.5 184.682ZM5.18652 174.455L4.82335 174.111H4.82334L5.18652 174.455ZM18.1729 165.911L17.9729 165.453H17.9729L18.1729 165.911ZM63.8975 159.183L63.9241 158.683L63.9241 158.683L63.8975 159.183ZM119.237 156.2L119.371 156.682L119.372 156.682L119.237 156.2ZM119.808 156.041L120.305 155.99L120.244 155.4L119.673 155.559L119.808 156.041ZM116.371 1.18072L116.788 1.45618C116.948 1.21476 117.142 1.08628 117.377 1.03162C117.628 0.973329 117.964 0.991159 118.401 1.12346C119.281 1.39029 120.418 2.07491 121.754 3.12853C124.412 5.22511 127.695 8.64803 131.041 12.5683C137.733 20.4089 144.581 30.1255 147.056 34.9104L147.5 34.6807L147.944 34.451C145.419 29.5692 138.517 19.7864 131.802 11.9191C128.444 7.98529 125.11 4.50207 122.373 2.34334C121.011 1.2693 119.755 0.488979 118.691 0.166444C118.155 0.00406406 117.631 -0.0538904 117.151 0.0575408C116.655 0.172602 116.248 0.459343 115.954 0.905264L116.371 1.18072ZM147.5 34.6807L147.55 35.1782C150.327 34.8965 154.256 35.4851 158.75 36.9665C163.234 38.4447 168.245 40.7994 173.175 44.0122C183.04 50.4403 192.542 60.2749 196.897 73.3388L197.371 73.1807L197.845 73.0226C193.4 59.6867 183.717 49.688 173.721 43.1744C168.721 39.9163 163.633 37.5231 159.063 36.0168C154.503 34.5138 150.423 33.8816 147.45 34.1833L147.5 34.6807ZM197.371 73.1807L196.897 73.3388C201.314 86.5908 206.591 95.4346 211.404 101.516C216.215 107.595 220.559 110.905 223.044 113.059L223.371 112.681L223.699 112.303C221.183 110.123 216.927 106.883 212.188 100.895C207.451 94.9101 202.228 86.1706 197.845 73.0226L197.371 73.1807ZM223.371 112.681L223.434 113.177C401.597 90.4072 471.289 186.062 483.888 233.31L484.371 233.181L484.854 233.052C472.12 185.299 401.944 89.3546 223.308 112.185L223.371 112.681ZM484.371 233.181L484.077 233.585C497.198 243.135 511.592 255.081 527.251 260.342C535.101 262.979 543.291 263.948 551.823 262.099C560.355 260.251 569.189 255.595 578.341 247.046L578 246.681L577.659 246.315C568.611 254.767 559.933 259.319 551.612 261.122C543.291 262.924 535.286 261.987 527.57 259.394C512.098 254.197 497.877 242.393 484.665 232.776L484.371 233.181ZM578 246.681L578.341 247.046C589.766 236.375 595.254 226.403 596.526 217.612C597.8 208.805 594.832 201.252 589.492 195.467C578.85 183.938 558.75 179.388 543.805 185.72L544 186.181L544.195 186.641C558.75 180.474 578.4 184.924 588.758 196.145C593.918 201.735 596.762 208.994 595.536 217.469C594.308 225.959 588.984 235.737 577.659 246.315L578 246.681ZM544 186.181L543.805 185.72C528.981 192.002 519.359 200.127 512.672 205.864C509.311 208.748 506.747 210.976 504.632 212.107C503.583 212.668 502.697 212.929 501.919 212.895C501.16 212.862 500.443 212.546 499.725 211.827L499.371 212.181L499.018 212.534C499.882 213.399 500.826 213.848 501.875 213.894C502.906 213.939 503.977 213.592 505.104 212.989C507.341 211.792 510.007 209.468 513.324 206.623C519.993 200.901 529.519 192.86 544.195 186.641L544 186.181ZM499.371 212.181L499.84 212.006C493.666 195.459 498.352 179.707 508.643 167.329C518.943 154.94 534.837 145.966 550.962 143.048C567.086 140.131 583.364 143.276 594.532 155.01C605.702 166.747 611.869 187.192 607.505 219.113L608 219.181L608.495 219.248C612.881 187.17 606.719 166.365 595.256 154.321C583.79 142.273 567.13 139.106 550.784 142.064C534.44 145.021 518.333 154.11 507.874 166.689C497.407 179.28 492.577 195.402 498.903 212.356L499.371 212.181ZM608 219.181L607.505 219.113C604.012 244.662 596.992 261.984 587.585 273.232C578.191 284.465 566.381 289.681 553.202 290.958C540.005 292.236 525.432 289.563 510.553 284.993C495.677 280.425 480.534 273.973 466.2 267.722L466 268.181L465.8 268.639C480.132 274.889 495.323 281.362 510.259 285.949C525.193 290.536 539.912 293.25 553.298 291.953C566.702 290.655 578.768 285.334 588.352 273.873C597.925 262.428 604.988 244.9 608.495 219.248L608 219.181ZM466 268.181L465.636 267.838C449.392 285.081 439.194 296.622 432.753 307.743C426.297 318.89 423.626 329.594 422.373 345.141L422.871 345.181L423.369 345.221C424.616 329.767 427.26 319.222 433.618 308.244C439.992 297.24 450.108 285.78 466.364 268.524L466 268.181ZM422.871 345.181L422.373 345.141C421.898 351.023 416.474 355.584 407.565 359.036C398.701 362.472 386.596 364.722 373.195 366.108C346.401 368.879 314.557 368.181 293.406 366.682L293.371 367.181L293.336 367.679C314.519 369.181 346.425 369.882 373.298 367.103C386.729 365.714 398.938 363.452 407.927 359.969C416.872 356.502 422.844 351.738 423.369 345.221L422.871 345.181ZM293.371 367.181L293.848 367.03C292.921 364.103 292.821 361.519 293.376 359.236C293.931 356.953 295.15 354.937 296.911 353.157C300.446 349.585 306.144 346.989 312.902 345.164C326.403 341.517 343.868 341.015 355.843 341.68L355.871 341.181L355.899 340.681C343.874 340.013 326.289 340.512 312.641 344.198C305.823 346.04 299.921 348.694 296.2 352.454C294.333 354.341 293.009 356.513 292.405 359C291.799 361.488 291.921 364.259 292.894 367.332L293.371 367.181ZM355.871 341.181L355.993 340.696C316.59 330.745 304.514 304.747 303.369 293.132L302.871 293.181L302.374 293.23C303.562 305.281 315.953 331.616 355.749 341.665L355.871 341.181ZM302.871 293.181L302.885 292.681C295.769 292.483 287.498 290.132 280.026 287.252C272.561 284.374 265.935 280.986 262.124 278.75L261.871 279.181L261.618 279.612C265.474 281.875 272.148 285.287 279.666 288.185C287.177 291.08 295.573 293.478 302.857 293.681L302.871 293.181ZM261.871 279.181L261.373 279.132C257.623 317.639 252.252 340.902 244.135 353.853C240.09 360.307 235.376 364.175 229.854 366.107C224.32 368.044 217.917 368.056 210.461 366.689L210.371 367.181L210.281 367.673C217.825 369.056 224.422 369.067 230.185 367.051C235.959 365.03 240.84 360.992 244.982 354.384C253.24 341.209 258.619 317.722 262.369 279.229L261.871 279.181ZM210.371 367.181L210.461 366.689C204.479 365.592 201.144 364.033 199.593 362.324C198.832 361.487 198.503 360.616 198.487 359.727C198.471 358.826 198.775 357.86 199.366 356.845C200.552 354.805 202.822 352.689 205.532 350.725C208.23 348.768 211.32 346.995 214.092 345.629L213.871 345.181L213.65 344.732C210.839 346.117 207.699 347.918 204.945 349.915C202.201 351.904 199.794 354.119 198.501 356.342C197.852 357.458 197.467 358.606 197.487 359.745C197.508 360.897 197.944 361.995 198.852 362.996C200.64 364.965 204.264 366.569 210.281 367.673L210.371 367.181ZM213.871 345.181L214.197 345.56C221.634 339.161 230.156 317.018 207.3 278.923L206.871 279.181L206.442 279.438C229.185 317.343 220.442 338.867 213.545 344.802L213.871 345.181ZM206.871 279.181L207.208 278.812C164.003 239.353 142.581 205.534 131.895 180.795C121.212 156.064 121.248 140.386 120.999 137.142L120.5 137.181L120.001 137.219C120.252 140.475 120.223 156.297 130.977 181.191C141.726 206.077 163.239 240.009 206.534 279.55L206.871 279.181ZM120.5 137.181L120.999 137.142C120.959 136.631 120.773 136.191 120.45 135.831C120.134 135.478 119.709 135.224 119.222 135.036C118.26 134.665 116.943 134.51 115.416 134.444C113.878 134.378 112.062 134.399 110.081 134.408C108.093 134.417 105.926 134.414 103.661 134.299C94.588 133.841 84.0494 131.608 77.4192 121.408L77 121.681L76.5808 121.953C83.4794 132.566 94.4404 134.835 103.61 135.298C105.905 135.414 108.095 135.417 110.086 135.408C112.082 135.399 113.866 135.378 115.373 135.443C116.89 135.509 118.064 135.661 118.862 135.969C119.255 136.121 119.528 136.299 119.705 136.498C119.876 136.688 119.978 136.918 120.001 137.219L120.5 137.181ZM77 121.681L77.4192 121.408C74.1811 116.426 72.9537 113.176 72.8389 110.782C72.7262 108.434 73.681 106.836 75.0739 105.121C76.4573 103.418 78.3159 101.565 79.7257 98.8485C81.1494 96.1053 82.1242 92.4847 81.8705 87.1569L81.3711 87.1807L80.8717 87.2045C81.118 92.3767 80.1715 95.8186 78.8381 98.3879C77.4909 100.984 75.7569 102.694 74.2976 104.491C72.8478 106.276 71.7098 108.115 71.84 110.83C71.9681 113.499 73.3192 116.935 76.5808 121.953L77 121.681ZM81.3711 87.1807L81.8705 87.1569C81.3785 76.8219 86.6796 65.0607 93.4603 55.9161C96.8449 51.3515 100.579 47.4654 104.105 44.757C107.656 42.0301 110.909 40.564 113.347 40.6802L113.371 40.1807L113.395 39.6813C110.584 39.5474 107.087 41.2064 103.496 43.9639C99.882 46.7398 96.085 50.6975 92.6571 55.3204C85.8128 64.5508 80.3639 76.5396 80.8717 87.2045L81.3711 87.1807ZM113.371 40.1807L113.347 40.6802C114.545 40.7371 115.551 40.3128 116.364 39.517C117.162 38.7353 117.761 37.6095 118.209 36.2654C119.106 33.5787 119.452 29.8605 119.459 25.7689C119.471 17.5708 118.115 7.68658 116.862 1.08745L116.371 1.18072L115.88 1.27399C117.127 7.84147 118.471 17.6572 118.459 25.7674C118.452 29.8299 118.105 33.4179 117.261 35.949C116.839 37.2138 116.306 38.1747 115.664 38.8025C115.038 39.4162 114.297 39.7242 113.395 39.6813L113.371 40.1807ZM119.868 156.63L119.371 156.681C120.204 164.764 123.705 175.39 128.371 185.619L128.826 185.411L129.281 185.204C124.634 175.017 121.183 164.506 120.366 156.579L119.868 156.63ZM128.826 185.411L128.371 185.619C133.038 195.848 138.871 205.681 144.371 212.181L144.753 211.858L145.135 211.535C139.713 205.129 133.925 195.382 129.281 185.204L128.826 185.411ZM144.753 211.858L144.371 212.182L145.137 213.086L145.519 212.763L145.9 212.44L145.135 211.535L144.753 211.858ZM145.519 212.763L145.553 212.264L144.371 212.182L144.336 212.681L144.301 213.18L145.484 213.262L145.519 212.763ZM144.336 212.681L144.371 212.182C136.038 211.599 126.519 211.123 112.485 207.594L112.363 208.079L112.241 208.564C126.37 212.117 135.968 212.596 144.301 213.18L144.336 212.681ZM112.363 208.079L112.485 207.594C98.464 204.068 79.9348 197.493 53.5745 184.717L53.3564 185.167L53.1384 185.617C79.5413 198.414 98.1362 205.017 112.241 208.564L112.363 208.079ZM53.3564 185.167L53.419 184.671C33.7788 182.192 20.6784 186.267 12.4861 188.929L12.6406 189.404L12.7951 189.88C20.9337 187.235 33.8686 183.212 53.2938 185.663L53.3564 185.167ZM12.6406 189.404L12.4861 188.929C10.4355 189.595 8.69184 190.173 7.23056 190.537L7.35156 191.023L7.47257 191.508C8.97655 191.133 10.7621 190.54 12.7951 189.88L12.6406 189.404ZM7.35156 191.023L7.23056 190.537C5.76958 190.902 4.58988 191.053 3.66681 190.866L3.56738 191.356L3.46796 191.846C4.62354 192.08 5.98897 191.878 7.47256 191.508L7.35156 191.023ZM3.56738 191.356L3.66682 190.866C2.74405 190.678 2.07708 190.153 1.64111 189.164L1.18359 189.365L0.726081 189.567C1.28473 190.834 2.2074 191.59 3.46794 191.846L3.56738 191.356ZM1.18359 189.365L1.64112 189.164C1.20523 188.175 1.00005 186.722 1 184.682L0.5 184.682L4.95032e-10 184.682C5.31082e-05 186.757 0.203658 188.382 0.726065 189.567L1.18359 189.365ZM0.5 184.682H1C0.999968 181.307 2.5855 177.931 5.54971 174.799L5.18652 174.455L4.82334 174.111C1.74095 177.369 -3.46894e-05 180.978 4.95032e-10 184.682H0.5ZM5.18652 174.455L5.5497 174.799C8.51405 171.666 12.8579 168.776 18.3728 166.369L18.1729 165.911L17.9729 165.453C12.374 167.896 7.90541 170.854 4.82335 174.111L5.18652 174.455ZM18.1729 165.911L18.3728 166.369C29.403 161.557 45.121 158.682 63.8708 159.682L63.8975 159.183L63.9241 158.683C45.0535 157.677 29.1745 160.566 17.9729 165.453L18.1729 165.911ZM63.8975 159.183L63.8708 159.682C93.8702 161.282 113.371 158.349 119.371 156.682L119.237 156.2L119.103 155.718C113.243 157.346 93.8593 160.28 63.9241 158.683L63.8975 159.183ZM119.237 156.2L119.372 156.682L119.942 156.523L119.808 156.041L119.673 155.559L119.103 155.719L119.237 156.2ZM119.808 156.041L119.31 156.092L119.371 156.681L119.868 156.63L120.366 156.579L120.305 155.99L119.808 156.041Z" fill="#FF8A30"/>
<path d="M144.371 212.181C133.371 199.181 121.038 172.848 119.371 156.681C113.371 158.348 93.8714 161.281 63.8714 159.681C26.3714 157.681 1.00011 171.181 1.00024 184.681C1.00041 201.006 14.1297 179.681 53.5002 184.681C106.3 210.281 127.705 211.014 144.371 212.181Z" fill="white"/>
<path d="M120.5 137.181C120 130.681 90.5295 142.495 77.0005 121.681C84.2102 115.848 142 137.181 178.5 72.1812C199 60.1812 182 167.681 210.371 243.181C235.994 233.848 283.5 209.181 302.871 188.181C314 176.116 332.867 178.781 293.371 243.181C322.081 224.848 385.5 192.781 409.5 211.181C433.714 229.745 431.05 299.763 426.297 330.823C425.162 338.245 423.907 343.442 422.871 345.181C420.871 369.981 335.704 370.181 293.371 367.181C285.771 343.181 331.871 339.848 355.871 341.181C316.271 331.181 304.038 305.014 302.871 293.181C288.471 292.781 269.538 283.681 261.871 279.181C254.371 356.181 240.371 372.681 210.371 367.181C186.371 362.781 202.704 350.681 213.871 345.181C221.038 339.014 229.671 317.181 206.871 279.181C120.371 200.181 121 143.681 120.5 137.181Z" fill="white"/>
<path d="M491.5 278.681C495.1 279.481 498 256.348 499 244.681L512 252.181C519 289.181 487 277.681 491.5 278.681Z" fill="white"/>
<path d="M536 291.181C540.4 289.981 537.834 271.681 536 262.681C542.8 264.681 553.167 261.848 557.5 260.181C563.5 270.581 562 285.181 560.5 291.181C548.5 293.981 539.167 292.348 536 291.181Z" fill="white"/>
<path d="M590 270.681C592.8 261.481 587.5 246.514 584.5 240.181C586.5 240.181 592.334 229.514 595 224.181C599 231.781 601.667 241.348 602.5 245.181C600.9 255.581 593.5 266.514 590 270.681Z" fill="white"/>
<path d="M595 155.181C598.6 167.581 590.167 185.348 585.5 192.681C593.9 199.481 595.334 205.181 595 207.181C599 207.981 605 189.514 607.5 180.181C606.3 170.181 598.667 159.348 595 155.181Z" fill="white"/>
<path d="M560.5 183.181C570.9 165.181 563.167 147.681 558 141.181C546 141.181 535 147.181 531 150.181C542.6 161.781 541.5 180.014 539.5 187.681C550.3 182.481 558 182.514 560.5 183.181Z" fill="white"/>
<path d="M519 201.681C523.4 185.681 511.833 174.014 505.5 170.181C492 180.681 495 211.681 501.5 213.681C506.7 215.281 515.333 206.348 519 201.681Z" fill="white"/>
</svg>
