<svg width="51" height="51" viewBox="0 0 51 51" fill="none" xmlns="http://www.w3.org/2000/svg">
<path d="M35.999 0C44.2833 0 50.999 6.71573 50.999 15V36C50.999 44.2842 44.2833 51 35.999 51H15C6.71577 51 6.28925e-05 44.2842 0 36V15C1.04031e-06 6.71573 6.71573 0 15 0H35.999ZM20.4326 21.2051L13.0566 16.3496L9 18.2168V32.7832L13.0566 34.6504L20.4326 30.1689L34.4473 41L41.8232 38.0127V12.9883L34.4473 10L20.4326 21.2051ZM34.0791 31.6631L25.9648 25.6865L34.0791 19.7109V31.6631ZM17.4824 25.6865L13.7949 28.3018V23.0723L17.4824 25.6865Z" fill="#7E0048"/>
</svg>
